<?xml version="1.0" encoding="UTF-8"?>
<svg id="Capa_1" data-name="Capa 1" xmlns="http://www.w3.org/2000/svg" viewBox="0 0 72.97 14.69">
  <defs>
    <style>
      .cls-1 {
        fill: #2912a7;
      }
    </style>
  </defs>
  <g id="Capa_1-2" data-name="Capa_1">
    <path class="cls-1" d="M72.08,14.68h0l-.44-1.34v1.34h-.22v-1.64h.31l.48,1.4.46-1.4h.31v1.64h-.22v-1.34l-.44,1.34h-.22ZM70.46,13.22h-.53v-.19h1.28v.19h-.53v1.46h-.22v-1.46ZM68.28,11.54h-3.03.1c-.05,0-.1-.05-.1-.1V1.56c0-1.51-1.04-2-2.52-1.11l-17.62,10.88c-.68.43-.92.91-.75,1.27.14.31.53.53,1.29.53h16.35c.05,0,.08.03.08.07v1.39c0,.07.05.1.1.1h2.95c.05,0,.1-.03.1-.1v-1.35c0-.05.05-.1.1-.1h2.93c.07,0,.1-.05.1-.1v-1.37c0-.05-.03-.1-.1-.1h0ZM62.11,11.44h0c0,.05-.05.1-.1.1h-13.72c-.12,0-.17-.03-.19-.07-.02-.07.02-.12.1-.17l13.65-8.44c.09-.07.26-.05.26.14v8.44h0ZM45.61,0h0l-9.56.02c-2.78,0-4.12,1.7-4.12,3.92v6.8c0,1.39-.67,2.38-2.03,2.38h-8.99c-.05,0-.1.03-.1.1v1.35c0,.07.05.12.1.12h10.02c2.78,0,4.14-1.73,4.14-3.96V3.94c0-1.39.65-2.38,2.03-2.38h8.52c.05,0,.1-.05.1-.1V.1c0-.05-.05-.1-.1-.1ZM17.38.02H.1c-.07,0-.1.03-.1.09v1.35c0,.07.03.1.1.1h16.24c1.38,0,2.03.99,2.03,2.38s-.65,2.38-2.03,2.38H3.49c-1.99,0-3.49,1.7-3.49,3.92v4.33c0,.07.03.12.1.12h2.93c.05,0,.1-.05.1-.12v-4.33c0-1.39.78-2.35,1.93-2.35h12.32c2.78,0,4.12-1.71,4.12-3.96S20.15.02,17.38.02h0Z"/>
  </g>
</svg>