<?xml version="1.0" encoding="UTF-8"?>
<svg id="Capa_1" data-name="Capa 1" xmlns="http://www.w3.org/2000/svg" viewBox="0 0 17.68 14.69">
  <defs>
    <style>
      .cls-1 {
        fill: #2912a7;
      }
    </style>
  </defs>
  <g id="Capa_1-2" data-name="Capa_1">
    <path class="cls-1" d="M7.04.07h-3.15l10.64,14.62h3.15S7.04.07,7.04.07h0ZM17.25.07h-3.15l-1.96,2.69,1.57,2.16L17.25.07ZM3.46,14.69h3.15l2.39-3.29-1.57-2.16-3.96,5.45ZM.47,10.06H.06v1.75h2.37v-1.75h-.41v1.29h-.61v-1.17h-.39v1.17H.46v-1.29ZM.47,2.88H.06v1.75h2.37v-1.75h-.41v1.29h-.61v-1.17h-.39v1.17H.46v-1.29ZM.06,6.19h2.37v-.45H.06s0,.45,0,.45ZM.78,7.65c-.1,0-.19.03-.26.11-.06.09-.1.2-.09.3v.58h.71v-.6c0-.11-.03-.21-.09-.29-.07-.07-.17-.11-.27-.1h0ZM2.43,7.14v.47h0c-.09.04-.19.07-.28.06h-.26c-.11,0-.21.04-.3.11-.06.08-.09.18-.08.28v.58h.93v.45H.06v-1.07c0-.05,0-.1,0-.15v.05c0-.16.05-.32.14-.45l-.02.02s.04-.06.06-.08c.12-.15.3-.23.49-.22.26-.02.49.14.56.39.03-.1.09-.19.18-.25.1-.06.21-.09.33-.09l.35-.02c.1,0,.19-.02.27-.07h0ZM1.29,12.91c-.13.18-.22.38-.25.6l-.04.21c-.02.13-.06.25-.13.36-.05.07-.13.1-.22.1-.09,0-.17-.04-.21-.11-.06-.09-.08-.2-.08-.31-.01-.14.02-.27.1-.38.07-.09.18-.13.3-.13h0v-.44h0c-.22,0-.42.09-.56.25-.15.21-.22.46-.2.71-.01.23.05.46.18.65.12.15.3.24.49.23.18,0,.35-.06.47-.19.14-.16.22-.36.25-.57l.04-.2c.02-.13.06-.26.13-.38.05-.07.13-.11.21-.1.1,0,.19.04.25.12.06.11.1.23.09.35.01.15-.03.3-.11.43-.09.1-.22.16-.36.15h0v.45h0c.24.01.47-.09.62-.27.28-.44.29-1,.03-1.45-.13-.17-.33-.26-.54-.25-.17,0-.34.06-.46.19h0s0,0,0,0h0ZM1.75,0c.21,0,.41.08.54.25.26.45.25,1.01-.02,1.45-.15.18-.38.28-.62.27h0v-.45h0c.14.01.27-.04.36-.15.08-.13.12-.28.11-.43,0-.12-.02-.25-.09-.35-.06-.08-.15-.13-.25-.12-.08,0-.16.03-.21.1-.07.12-.11.25-.13.38l-.04.2c-.03.21-.12.41-.25.57-.12.13-.29.2-.47.19-.19,0-.37-.08-.49-.23C.05,1.49-.01,1.26,0,1.03-.01.78.06.53.2.32.34.16.55.07.76.07h0v.44h0c-.11,0-.22.05-.3.13-.07.11-.11.25-.1.38,0,.11.02.22.08.31.05.07.13.11.21.11.08,0,.16-.03.22-.1.07-.11.11-.23.13-.36l.04-.21c.03-.22.12-.42.25-.6C1.41.06,1.58,0,1.75,0h0s0,0,0,0Z"/>
  </g>
</svg>