<?xml version="1.0" encoding="UTF-8"?>
<svg id="Capa_1" data-name="Capa 1" xmlns="http://www.w3.org/2000/svg" viewBox="0 0 16.06 14.69">
  <defs>
    <style>
      .cls-1 {
        fill: #2912a7;
      }
    </style>
  </defs>
  <g id="Capa_1-2" data-name="Capa_1">
    <path class="cls-1" d="M.45,9.93H.06v1.68h2.28v-1.68h-.39v1.24h-.58v-1.13h-.38v1.13H.45v-1.24ZM.45,3.02H.06v1.68h2.28v-1.68h-.39v1.24h-.58v-1.13h-.38v1.13H.45v-1.24ZM.06,6.2h2.28v-.44H.06s0,.44,0,.44ZM.75,7.61c-.09,0-.18.03-.25.1-.06.08-.09.19-.09.29v.55h.68v-.57c0-.1-.03-.2-.09-.28-.07-.07-.16-.11-.26-.1h0s0,0,0,0ZM2.33,7.11v.45h0c-.08.04-.18.06-.27.06h-.25c-.1,0-.21.04-.29.1-.06.08-.09.17-.08.27v.56h.89s0,.44,0,.44H.05v-1.03s0-.1,0-.15v.05c0-.15.05-.3.13-.44l-.02.02s.03-.05.05-.08c.12-.14.29-.22.47-.21.25-.02.47.14.54.37.03-.1.09-.18.17-.24.1-.06.21-.08.32-.08l.34-.02c.09,0,.18-.02.26-.07h0s0,0,0,0ZM1.24,12.66c-.13.17-.21.37-.24.58l-.04.2c-.02.12-.06.24-.12.35-.05.06-.13.1-.21.1-.08,0-.16-.04-.21-.1-.05-.09-.08-.2-.07-.3-.01-.13.02-.26.09-.37.07-.08.18-.13.28-.13h0v-.43h0c-.21,0-.4.09-.54.24-.14.2-.21.44-.19.68-.01.22.05.44.17.62.11.15.29.23.47.22.17,0,.33-.06.45-.18.13-.16.21-.35.24-.55l.04-.19c.02-.13.06-.25.12-.36.05-.07.12-.1.2-.1.1,0,.19.04.24.12.06.1.09.22.08.34.01.15-.03.29-.1.41-.09.1-.21.15-.35.14h0v.43h0c.23.01.45-.08.6-.26.27-.42.28-.96.02-1.4-.12-.16-.32-.25-.52-.24-.17,0-.33.06-.44.18h0s0,0,0,0h0ZM1.68.25c.2,0,.4.08.52.24.25.43.24.97-.02,1.4-.15.17-.37.27-.6.26h0v-.43h0c.13.01.26-.04.35-.14.08-.12.11-.27.1-.41,0-.12-.02-.24-.08-.34-.06-.08-.15-.12-.24-.12-.08,0-.16.03-.2.1-.06.11-.11.24-.12.36l-.04.19c-.03.2-.11.39-.24.55-.12.12-.28.19-.45.18-.18,0-.36-.08-.47-.22C.05,1.68,0,1.46,0,1.24c-.02-.24.05-.48.19-.68.13-.16.33-.25.54-.24h0v.42h0c-.11,0-.21.05-.29.13-.07.11-.1.24-.09.37,0,.11.02.21.07.3.05.07.12.11.21.1.08,0,.16-.03.21-.1.06-.11.11-.22.12-.35l.04-.2c.03-.21.11-.41.24-.58.11-.12.27-.18.44-.17h0ZM14.96,7.67c-.64-.57-1.64-1.02-2.98-1.34l-1.47,2.02c.77.15,1.5.46,2.16.89.41.28.65.76.62,1.26.03.6-.25,1.17-.73,1.51-.63.39-1.37.57-2.12.52h0c-2.13,0-3.13-.71-4.16-2.54h0l-1.47,2.02c.26.54.64,1.02,1.11,1.39,1.05.86,2.53,1.28,4.44,1.28,1.79,0,3.19-.38,4.19-1.14,1-.75,1.56-1.94,1.5-3.19.05-1.02-.35-2-1.1-2.7h0ZM7.9,7.77l1.46-2c-.48-.11-.93-.31-1.34-.58-.4-.31-.63-.8-.6-1.3-.02-.51.23-1,.65-1.28.57-.34,1.22-.5,1.88-.45h0c2.56,0,3.23,1.35,3.68,1.92l1.37-1.89c-.23-.38-.53-.71-.87-1-.96-.79-2.36-1.19-4.22-1.19-1.64,0-2.92.36-3.84,1.08-.91.68-1.42,1.76-1.38,2.89,0,1.92,1.07,3.13,3.22,3.8h0Z"/>
  </g>
</svg>