<?xml version="1.0" encoding="UTF-8"?>
<svg id="Capa_1" data-name="Capa 1" xmlns="http://www.w3.org/2000/svg" viewBox="0 0 14.69 14.69">
  <defs>
    <style>
      .cls-1 {
        fill: #2912a7;
      }
    </style>
  </defs>
  <g id="Capa_1-2" data-name="Capa_1">
    <path class="cls-1" d="M6.98,0h-3.21C1.69,0,0,1.69,0,3.77v7.16c0,2.08,1.69,3.77,3.77,3.77h3.21c.06,0,.11-.05.11-.11V.11c0-.06-.05-.11-.11-.11h0ZM5.9,13.51h-2.13c-.69,0-1.34-.27-1.83-.76-.49-.49-.76-1.14-.76-1.83V3.77c0-.69.27-1.34.76-1.83.49-.49,1.14-.76,1.83-.76h2.13v12.32h0s0,0,0,0ZM3.67,3.03c.76,0,1.38.62,1.38,1.38s-.62,1.38-1.38,1.38-1.38-.62-1.38-1.38.62-1.38,1.38-1.38ZM10.92,0h-2.27c-.05,0-.09.04-.09.1v14.49c0,.06.05.11.11.11h2.26c2.08,0,3.77-1.69,3.77-3.77V3.77C14.69,1.69,13.01,0,10.92,0h0ZM11.46,9.57c-.82,0-1.49-.67-1.49-1.49s.67-1.48,1.49-1.48,1.49.67,1.49,1.48-.67,1.49-1.49,1.49Z"/>
  </g>
</svg>