<?xml version="1.0" encoding="UTF-8"?>
<svg id="Capa_1" data-name="Capa 1" xmlns="http://www.w3.org/2000/svg" viewBox="0 0 28.1 14.69">
  <defs>
    <style>
      .cls-1 {
        fill: #2912a7;
      }
    </style>
  </defs>
  <g id="Capa_1-2" data-name="Capa_1">
    <path class="cls-1" d="M6.98.23h-3.21C1.69.23,0,1.89,0,3.94v7.05c0,2.05,1.69,3.71,3.77,3.71h3.21c.06,0,.11-.05.11-.11V.33c0-.06-.05-.11-.11-.11h0ZM5.9,13.53h-2.13c-.69,0-1.34-.26-1.83-.74-.49-.48-.76-1.12-.76-1.8V3.94c0-.68.27-1.32.76-1.8.49-.48,1.14-.74,1.83-.74h2.13v12.13h0ZM3.67,3.21c.76,0,1.38.61,1.38,1.36s-.62,1.36-1.38,1.36-1.38-.61-1.38-1.36.62-1.36,1.38-1.36ZM10.92.23h-2.27c-.05,0-.09.04-.09.1v14.26c0,.06.05.11.11.11h2.26c2.08,0,3.77-1.66,3.77-3.71V3.94c0-2.05-1.69-3.71-3.77-3.71h0ZM11.46,9.65c-.82,0-1.49-.66-1.49-1.46s.67-1.46,1.49-1.46,1.48.65,1.48,1.46-.67,1.46-1.48,1.46ZM17.17,14.69v-2.49c.26-.21,1.25-1.05,2.29-1.93.94-.8,1.88-1.59,2.83-2.37.72-.58,2.09-1.65,2.13-2.7.05-1.23-.84-2.03-2.17-2.03-.79,0-1.72.43-2.28.9-.56.47-1.28,1.08-1.28,1.08l-2.08-2.22C18.38.99,20.28,0,22.25,0c4.22-.1,7.4,4.52,4.19,8.15-1.16,1.26-2.48,2.45-3.84,3.5h5.51v3.04h-10.94,0,0Z"/>
  </g>
</svg>