<?xml version="1.0" encoding="UTF-8"?>
<svg id="Capa_1" data-name="Capa 1" xmlns="http://www.w3.org/2000/svg" xmlns:xlink="http://www.w3.org/1999/xlink" viewBox="0 0 226.23 186.52">
  <defs>
    <style>
      .cls-1 {
        fill: #f2f2f2;
      }

      .cls-1, .cls-2 {
        fill-rule: evenodd;
      }

      .cls-3 {
        fill: #fff;
      }

      .cls-2 {
        fill: url(#Degradado_sin_nombre_4);
      }

      .cls-4 {
        fill: url(#Degradado_sin_nombre_2);
      }

      .cls-5 {
        fill: url(#Degradado_sin_nombre_3);
      }

      .cls-6 {
        fill: url(#Degradado_sin_nombre);
      }
    </style>
    <linearGradient id="Degradado_sin_nombre" data-name="Degradado sin nombre" x1="5949.82" y1="-14928.21" x2="14186.57" y2="-13852.78" gradientTransform="translate(-179.1 -313.12) scale(.03 -.03)" gradientUnits="userSpaceOnUse">
      <stop offset="0" stop-color="#a60a9b"/>
      <stop offset="1" stop-color="#2612a7"/>
    </linearGradient>
    <linearGradient id="Degradado_sin_nombre_2" data-name="Degradado sin nombre 2" x1="10570.27" y1="-11346.11" x2="9948.9" y2="-12797.06" gradientTransform="translate(-179.1 -313.12) scale(.03 -.03)" gradientUnits="userSpaceOnUse">
      <stop offset="0" stop-color="#a20a9b"/>
      <stop offset="1" stop-color="#4610a4"/>
    </linearGradient>
    <linearGradient id="Degradado_sin_nombre_3" data-name="Degradado sin nombre 3" x1="7023.59" y1="-14851.15" x2="13624.11" y2="-13782.86" gradientTransform="translate(-179.1 -313.12) scale(.03 -.03)" gradientUnits="userSpaceOnUse">
      <stop offset="0" stop-color="#a40a9b"/>
      <stop offset="1" stop-color="#2712a7"/>
    </linearGradient>
    <linearGradient id="Degradado_sin_nombre_4" data-name="Degradado sin nombre 4" x1="6398.67" y1="-17053.66" x2="14294.45" y2="-16176.72" gradientTransform="translate(-179.1 -313.12) scale(.03 -.03)" gradientUnits="userSpaceOnUse">
      <stop offset="0" stop-color="#2612a7"/>
      <stop offset="1" stop-color="#a60a9b"/>
    </linearGradient>
  </defs>
  <g id="Capa_1-2" data-name="Capa_1">
    <g id="_2811903575408" data-name=" 2811903575408">
      <path class="cls-6" d="M165.88,63.7c-4.86-8.33-14.45-12.67-23.92-10.83l-18.26,3.55c-3.5.68-7.05,1.02-10.6,1.02s-7.1-.34-10.6-1.02l-18.26-3.55c-9.46-1.84-19.06,2.5-23.92,10.83-13.3,22.81-16.06,69.41,1.52,69.41,7.75,0,13.24-1.92,19.77-8.07,10.06-9.56,18.36-13.38,31.48-14.04,13.12.66,21.42,4.48,31.48,14.04,6.52,6.15,12.02,8.07,19.77,8.07,17.58,0,14.82-46.61,1.52-69.41h0ZM66.88,85.55c0-2.37,1.94-4.32,4.32-4.32h8.73v-8.73c0-2.37,1.94-4.32,4.32-4.32s4.32,1.94,4.32,4.32v8.73h8.73c2.37,0,4.32,1.94,4.32,4.32s-1.94,4.32-4.32,4.32h-8.73v8.73c0,2.37-1.94,4.32-4.32,4.32s-4.32-1.94-4.32-4.32v-8.73h-8.73c-2.37,0-4.32-1.94-4.32-4.32ZM130.1,91.02c-3.02,0-5.48-2.45-5.48-5.48s2.45-5.48,5.48-5.48,5.48,2.45,5.48,5.48-2.45,5.48-5.48,5.48ZM141.99,102.91c-3.02,0-5.48-2.45-5.48-5.48s2.45-5.48,5.48-5.48,5.48,2.45,5.48,5.48-2.45,5.48-5.48,5.48ZM141.99,79.14c-3.02,0-5.48-2.45-5.48-5.48s2.45-5.48,5.48-5.48,5.48,2.45,5.48,5.48-2.45,5.48-5.48,5.48ZM153.87,91.02c-3.02,0-5.48-2.45-5.48-5.48s2.45-5.48,5.48-5.48,5.48,2.45,5.48,5.48-2.45,5.48-5.48,5.48Z"/>
      <polygon class="cls-1" points="115.87 6.11 132.23 6.11 117.06 25.22 132.43 25.22 109.13 47.36 113.53 29.87 102.06 29.87 115.87 6.11"/>
      <path class="cls-4" d="M129.88,20.85h-11.01l9.9-12.42c.2-.26.02-.65-.31-.65h-19.16c-.14,0-.27.07-.34.2l-12.94,22.21c-.15.26.03.6.34.6h8.71l-4.47,17.75c-.09.39.37.66.66.38l28.89-27.38c.26-.24.08-.68-.27-.68h0ZM106.41,39.37l3.01-11.96h-7.86l9.47-16.25h11.22l-10.41,13.07h10.54l-15.98,15.14h0Z"/>
      <path class="cls-5" d="M113.11,0C138.74,0,161.93,10.39,178.72,27.18s27.18,39.99,27.18,65.61-10.39,48.82-27.18,65.61c-16.79,16.79-39.99,27.18-65.61,27.18s-48.82-10.39-65.61-27.18c-16.79-16.79-27.18-39.99-27.18-65.61s10.39-48.82,27.18-65.61C64.3,10.39,87.49,0,113.11,0h0ZM176.85,29.05C160.54,12.74,138,2.65,113.11,2.65s-47.42,10.09-63.73,26.4c-16.31,16.31-26.4,38.84-26.4,63.73s10.09,47.42,26.4,63.73c16.31,16.31,38.84,26.4,63.73,26.4s47.42-10.09,63.73-26.4c16.31-16.31,26.4-38.84,26.4-63.73s-10.09-47.42-26.4-63.73Z"/>
      <path class="cls-2" d="M5.25,152.98l212-23.55c.36,3.25,3.32,5.61,6.57,5.25l2.41,21.72c-3.25.36-5.62,3.32-5.25,6.57L8.98,186.52c-.36-3.25-3.32-5.61-6.57-5.25l-2.41-21.72c3.25-.36,5.61-3.32,5.25-6.57h0Z"/>
      <path class="cls-3" d="M30.89,176.75l-.42-3.77c-.24.69-.57,1.3-.99,1.83-.42.53-.9.99-1.44,1.37-.54.38-1.13.68-1.77.91-.64.23-1.3.38-1.97.46-1.22.14-2.37.06-3.45-.24-1.08-.3-2.08-.84-3.02-1.64-.94-.8-1.7-1.78-2.27-2.96-.58-1.17-.94-2.42-1.09-3.76-.15-1.34-.07-2.62.24-3.86.31-1.24.81-2.34,1.51-3.31.7-.97,1.57-1.77,2.62-2.4,1.05-.63,2.21-1.01,3.5-1.15,1.19-.13,2.23-.08,3.12.17.89.24,1.67.57,2.33.99.66.42,1.2.82,1.61,1.22l1.2-.13.24,2.2-2.66.3c-.66-.88-1.47-1.54-2.45-1.98-.97-.44-2.02-.59-3.15-.45-.95.11-1.8.4-2.54.89-.75.49-1.37,1.11-1.86,1.86-.49.75-.84,1.59-1.06,2.51-.21.93-.27,1.89-.16,2.88.12,1.1.41,2.1.86,3,.45.9.98,1.62,1.58,2.14.6.53,1.32.94,2.15,1.23.83.3,1.73.39,2.68.29,1.59-.18,2.84-.71,3.77-1.59.93-.89,1.5-2.17,1.73-3.85l-5.25.58-.24-2.13,7.94-.88,1,9-2.3.26h0ZM48.11,172.6l1.56-.17-1.96-4.1-7.22.8-.97,4.42,1.93-.21.24,2.13-6.1.68-.24-2.13,1.64-.18,4-17.29,3.65-.41,7.68,15.99,1.88-.21.24,2.13-6.09.68-.24-2.13h0ZM40.96,167l5.8-.64-3.86-8.07-1.94,8.71ZM56.1,171.71l1.78-.2-1.59-14.28-1.78.2-.26-2.36,5.94-.66,7.76,15.55,4.23-16.88,5.63-.63.26,2.36-1.77.2,1.59,14.28,1.77-.2.24,2.13-6.09.68-.24-2.13,2-.22-1.6-14.41-4.72,17.27-2.11.23-8.49-15.84,1.6,14.45,1.93-.21.24,2.13-6.09.68-.24-2.13h0ZM81.36,152.06l5.99-.67.24,2.14-1.78.2,1.61,14.5,1.78-.2.24,2.13-5.99.67-.24-2.13,1.78-.2-1.61-14.5-1.78.2-.24-2.14ZM102.51,149.71l6.09-.68.24,2.14-1.6.18,1.85,16.63-3.17.35-10.46-14.6,1.49,13.44,1.93-.21.24,2.13-6.09.68-.24-2.13,1.73-.19-1.61-14.5-1.78.2-.24-2.16,5.05-.56,10.28,14.46.03-.6-1.41-12.66-2.1.23-.24-2.14h0ZM127.59,166.01l-.42-3.77c-.24.69-.57,1.3-.99,1.83-.42.53-.9.99-1.44,1.37-.54.38-1.13.68-1.77.91-.64.23-1.3.38-1.97.46-1.22.14-2.37.06-3.45-.24-1.08-.3-2.08-.84-3.02-1.64-.94-.8-1.7-1.78-2.27-2.96-.58-1.17-.94-2.42-1.09-3.76-.15-1.34-.07-2.62.24-3.86.31-1.24.81-2.34,1.51-3.31.7-.97,1.57-1.77,2.62-2.4,1.05-.63,2.21-1.01,3.5-1.15,1.19-.13,2.23-.08,3.12.17.89.24,1.67.57,2.33.99.66.42,1.2.82,1.61,1.22l1.2-.13.24,2.2-2.66.3c-.66-.88-1.47-1.54-2.45-1.98s-2.02-.59-3.15-.45c-.95.11-1.8.4-2.55.89-.75.49-1.37,1.11-1.86,1.86-.49.75-.84,1.59-1.06,2.51-.21.93-.27,1.89-.16,2.88.12,1.1.41,2.1.86,3,.45.9.98,1.62,1.58,2.14.6.53,1.32.94,2.15,1.23.83.3,1.73.39,2.68.29,1.58-.18,2.84-.71,3.77-1.59.93-.89,1.5-2.17,1.73-3.85l-5.25.58-.24-2.13,7.94-.88,1,9-2.3.26h0ZM146.64,150.16c-.07-.29-.21-.55-.4-.79-.19-.24-.42-.44-.69-.6-.27-.16-.57-.27-.91-.34-.33-.07-.66-.09-1.01-.05-.32.04-.6.1-.87.2-.27.09-.49.22-.68.38-.19.16-.33.35-.42.58-.09.23-.13.49-.1.79.04.37.15.66.34.86.19.2.41.36.68.47.27.11.56.19.87.24.31.05.62.11.92.17l3.53.76c.49.11.96.29,1.4.53.44.24.84.55,1.19.93.35.38.64.83.87,1.35.23.52.38,1.11.46,1.78.1.9.03,1.76-.22,2.54-.25.79-.65,1.48-1.19,2.09-.54.6-1.22,1.1-2.03,1.49-.81.39-1.73.65-2.75.76-.72.08-1.4.07-2.06-.01-.66-.09-1.27-.26-1.83-.51-.56-.25-1.07-.56-1.51-.94-.44-.38-.81-.83-1.09-1.34l-1.28.14-.41-3.73,4.48-.5.09.77c.04.37.14.71.29,1.01.15.3.36.55.63.76.26.21.59.35.96.44.37.09.81.11,1.29.05.74-.08,1.29-.32,1.64-.7.35-.38.49-.88.42-1.49-.03-.31-.13-.57-.29-.76-.16-.2-.36-.35-.59-.47-.23-.12-.48-.22-.75-.29-.28-.07-.55-.13-.81-.18l-2.94-.6c-.56-.11-1.1-.28-1.63-.52-.53-.24-1.01-.56-1.45-.97-.43-.4-.8-.89-1.09-1.46-.3-.58-.48-1.24-.57-2.01-.1-.89-.02-1.7.23-2.44.25-.73.65-1.37,1.19-1.92.54-.54,1.2-.99,2-1.32.79-.34,1.67-.56,2.65-.67.77-.08,1.49-.07,2.16.03.67.1,1.28.28,1.83.52.55.24,1.03.53,1.43.88.4.34.72.71.95,1.1l1.24-.14.41,3.74-4.48.5-.12-1.09h0ZM165.01,142.77l8.05-.89.38,3.4-1.98.22,1.33,11.97,1.98-.22.38,3.39-8.05.89-.38-3.39,1.96-.22-.53-4.81-8.47.94.53,4.81,1.98-.22.38,3.39-8.04.89-.38-3.39,1.94-.22-1.33-11.97-1.94.22-.38-3.4,8.04-.89.38,3.4-1.98.22.43,3.9,8.47-.94-.43-3.9-1.96.22-.38-3.4h0ZM186.46,159.73c-.85.09-1.68.07-2.48-.08-.8-.15-1.56-.39-2.28-.74-.72-.35-1.39-.79-2-1.31-.62-.53-1.16-1.13-1.63-1.81-.46-.68-.86-1.42-1.16-2.22-.31-.8-.51-1.65-.61-2.56-.1-.9-.09-1.77.04-2.63.12-.86.34-1.66.64-2.43.31-.77.7-1.47,1.19-2.13.48-.65,1.04-1.22,1.67-1.72.63-.5,1.31-.9,2.06-1.22.75-.32,1.55-.52,2.4-.62s1.68-.07,2.48.08c.81.14,1.57.39,2.29.73.72.35,1.39.78,2,1.31.62.53,1.16,1.13,1.63,1.81.47.68.86,1.42,1.17,2.23.31.8.51,1.66.61,2.56.1.89.09,1.77-.03,2.62-.12.85-.34,1.66-.65,2.43-.31.77-.71,1.47-1.19,2.13-.48.65-1.04,1.22-1.67,1.72-.63.49-1.32.9-2.07,1.22-.75.32-1.56.52-2.4.62h0ZM186.03,155.84c.72-.08,1.36-.31,1.92-.68.57-.38,1.03-.85,1.4-1.44.37-.58.63-1.23.79-1.97.15-.73.19-1.49.1-2.29-.09-.8-.29-1.54-.61-2.23-.32-.68-.72-1.27-1.22-1.75-.49-.48-1.05-.85-1.68-1.09-.63-.24-1.3-.32-2.01-.24-.71.08-1.34.3-1.91.68-.56.38-1.03.85-1.39,1.43-.37.58-.64,1.24-.8,1.98-.17.74-.2,1.51-.11,2.31.09.79.29,1.53.61,2.21.32.68.73,1.26,1.22,1.74.49.48,1.04.85,1.67,1.09.63.25,1.3.33,2.01.25h0ZM195.9,139.34l8.67-.96c.96-.11,1.87-.06,2.71.16.84.21,1.58.54,2.23.99.64.45,1.17.99,1.57,1.62.4.63.65,1.31.73,2.04.1.87.06,1.71-.12,2.5-.18.79-.51,1.5-.99,2.12-.48.62-1.12,1.14-1.92,1.56-.8.42-1.77.69-2.9.82l-2.61.29.4,3.58,1.72-.19.38,3.39-7.78.86-.38-3.39,1.94-.22-1.33-11.97-1.94.22-.38-3.4h0ZM202.34,142.07l.56,5.04,1.69-.19c.94-.1,1.66-.39,2.17-.85.51-.46.72-1.12.62-1.97-.09-.8-.42-1.4-.99-1.8-.57-.39-1.36-.54-2.37-.43l-1.69.19h0Z"/>
    </g>
  </g>
</svg>